<svg width="206" height="149" viewBox="0 0 206 149" fill="none" xmlns="http://www.w3.org/2000/svg">
<path fill-rule="evenodd" clip-rule="evenodd" d="M28.5508 71.9055C28.5508 37.516 56.429 9.63776 90.8185 9.63776C107.333 9.63776 123.171 16.1981 134.848 27.8755C146.526 39.553 153.086 55.391 153.086 71.9055C153.086 106.295 125.208 134.173 90.8185 134.173C56.429 134.173 28.5508 106.295 28.5508 71.9055V71.9055Z" fill="url(#paint0_linear_72_17)"/>
<path fill-rule="evenodd" clip-rule="evenodd" d="M28.5508 71.9055C28.5508 37.516 56.429 9.63776 90.8185 9.63776C107.333 9.63776 123.171 16.1981 134.848 27.8755C146.526 39.553 153.086 55.391 153.086 71.9055C153.086 106.295 125.208 134.173 90.8185 134.173C56.429 134.173 28.5508 106.295 28.5508 71.9055V71.9055Z" stroke="white" stroke-miterlimit="10" stroke-linejoin="round"/>
<path d="M71.907 113.322C67.4278 113.322 63.4799 112.541 60.0632 110.978C56.657 109.416 54.0268 107.228 52.1726 104.416C50.3289 101.603 49.407 98.3479 49.407 94.65C49.407 91.525 50.0632 88.6864 51.3757 86.1343C52.6986 83.5718 54.4799 81.5458 56.7195 80.0562C58.9591 78.5562 61.4278 77.8062 64.1257 77.8062C66.6153 77.8062 68.7143 78.4312 70.4226 79.6812C72.1309 80.9208 73.1986 82.6395 73.6257 84.8375C69.9278 84.8375 66.9747 85.8166 64.7664 87.775C62.558 89.7333 61.4539 92.3843 61.4539 95.7281C61.4539 98.7802 62.3757 101.233 64.2195 103.087C66.0736 104.931 68.532 105.853 71.5945 105.853C75.3653 105.853 78.4747 104.593 80.9226 102.072C83.3809 99.5406 84.6101 96.3583 84.6101 92.525C84.6101 89.1812 83.683 86.0198 81.8289 83.0406C79.9851 80.051 77.2143 76.4208 73.5164 72.15C69.6726 67.7437 66.7716 63.9573 64.8132 60.7906C62.8653 57.6239 61.8914 54.1604 61.8914 50.4C61.8914 46.702 62.9226 43.3791 64.9851 40.4312C67.0476 37.4729 69.8914 35.1395 73.5164 33.4312C77.1414 31.7229 81.2299 30.8687 85.782 30.8687C91.5424 30.8687 96.1466 32.2229 99.5945 34.9312C103.042 37.6291 104.766 41.2541 104.766 45.8062C104.766 48.7958 104.016 51.2177 102.516 53.0718C101.027 54.9156 99.0736 55.8375 96.657 55.8375C93.9591 55.8375 91.7924 54.7333 90.157 52.525C91.5007 51.525 92.5632 50.2073 93.3445 48.5718C94.1257 46.9364 94.5164 45.2333 94.5164 43.4625C94.5164 41.1812 93.8393 39.3687 92.4851 38.025C91.1414 36.6708 89.2976 35.9937 86.9539 35.9937C84.1101 35.9937 81.782 37.0093 79.9695 39.0406C78.157 41.0614 77.2507 43.6343 77.2507 46.7593C77.2507 49.6031 78.0684 52.2541 79.7039 54.7125C81.3393 57.1604 83.8966 60.3062 87.3757 64.15C90.2195 67.2125 92.5111 69.8479 94.2507 72.0562C96.0007 74.2541 97.4955 76.7958 98.7351 79.6812C99.9851 82.5562 100.61 85.6656 100.61 89.0093C100.61 93.551 99.3445 97.6708 96.8132 101.369C94.2924 105.067 90.8445 107.983 86.4695 110.119C82.0945 112.254 77.2403 113.322 71.907 113.322ZM131.967 113.103C123.925 113.103 118.019 111.077 114.248 107.025C110.488 102.973 108.607 96.2541 108.607 86.8687C108.607 79.4 109.868 71.3635 112.389 62.7593C114.909 54.1552 118.961 46.7802 124.545 40.6343C130.128 34.4781 137.222 31.4 145.826 31.4C151.159 31.4 155.461 32.577 158.732 34.9312C162.003 37.275 163.639 40.8635 163.639 45.6968C163.639 48.7593 163.034 51.1604 161.826 52.9C160.618 54.6395 158.732 55.5093 156.17 55.5093C153.607 55.5093 151.581 54.5875 150.092 52.7437C151.373 52.0979 152.508 50.8166 153.498 48.9C154.498 46.9833 154.998 44.9937 154.998 42.9312C154.998 41.0041 154.482 39.4364 153.451 38.2281C152.42 37.0198 150.769 36.4156 148.498 36.4156C144.727 36.4156 141.133 38.9937 137.717 44.15C134.31 49.3062 131.555 55.7958 129.451 63.6187C127.357 71.4416 126.31 78.9781 126.31 86.2281C126.31 91.6343 127.232 95.7593 129.076 98.6031C130.93 101.447 134.274 102.869 139.107 102.869C143.305 102.869 147.18 101.947 150.732 100.103C154.284 98.2489 157.342 95.6135 159.904 92.1968L162.357 93.275C160.576 97.7541 157.941 101.489 154.451 104.478C150.972 107.457 147.243 109.64 143.264 111.025C139.284 112.41 135.519 113.103 131.967 113.103Z" fill="#4A86E8"/>
<path d="M1 87.282C8.04565 85.4061 26.7572 75.9127 43.274 76.0268C59.7908 76.141 83.9255 87.882 100.101 87.9668C116.276 88.0516 133.62 78.4407 140.324 76.5355" stroke="#3D85C6" stroke-width="4" stroke-miterlimit="10" stroke-linejoin="round"/>
<defs>
<linearGradient id="paint0_linear_72_17" x1="28.5508" y1="9.63731" x2="28.5503" y2="134.173" gradientUnits="userSpaceOnUse">
<stop stop-color="#BFBFBF"/>
<stop stop-color="#FFFF00"/>
<stop offset="0.1" stop-color="#FFFF00"/>
<stop offset="0.48" stop-color="#FF0000"/>
<stop offset="0.81" stop-color="#20124D"/>
<stop offset="1" stop-color="#20124D"/>
<stop offset="1" stop-color="#4A4360"/>
<stop offset="1" stop-color="#5F5B6A"/>
<stop offset="1" stop-color="#69676F"/>
<stop offset="1" stop-color="#6E6D71"/>
<stop offset="1" stop-color="#737373"/>
</linearGradient>
</defs>
</svg>
